<svg width="12" height="12" viewBox="0 0 12 12" fill="none" xmlns="http://www.w3.org/2000/svg">
<path d="M0.64575 11.9876C0.698047 11.9876 0.750344 11.9812 0.801995 11.9683L3.38456 11.3226C3.49819 11.2942 3.60214 11.2355 3.68478 11.1528L11.6217 3.21594C11.8657 2.97189 12 2.64778 12 2.303C12 1.95823 11.8657 1.63412 11.6217 1.39007L10.5977 0.366079C10.1096 -0.122026 9.2599 -0.122026 8.77179 0.366079L0.834923 8.30295C0.752281 8.38559 0.693528 8.48954 0.665119 8.60253L0.0194779 11.1851C-0.0360472 11.4053 0.0291626 11.6377 0.189282 11.7985C0.311308 11.9211 0.476592 11.9876 0.64575 11.9876ZM9.68473 1.27902L10.7087 2.303L9.68473 3.32699L8.66074 2.303L9.68473 1.27902ZM1.87441 9.08934L7.74781 3.21594L8.77179 4.23993L2.89775 10.1133L1.53286 10.4542L1.87441 9.08934Z"/>
</svg>
