<svg width="9" height="12" viewBox="0 0 9 12" fill="none" xmlns="http://www.w3.org/2000/svg">
<path d="M0.964 10.676C0.964 11.2076 1.39635 11.64 1.928 11.64H6.748C7.27965 11.64 7.712 11.2076 7.712 10.676V4.892H8.676V3.928H7.23H6.748V2.964C6.748 2.43235 6.31565 2 5.784 2H2.892C2.36035 2 1.928 2.43235 1.928 2.964V3.928H1.446H0V4.892H0.964V10.676ZM2.892 2.964H5.784V3.928H2.892V2.964ZM2.41 4.892H6.266H6.748L6.74848 10.676H1.928V4.892H2.41Z" fill="#AF053F"/>
<path d="M2.89233 3.85596H3.85633V7.71196H2.89233V3.85596ZM4.82034 3.85596H5.78434V7.71196H4.82034V3.85596Z"/>
</svg>
