<svg width="20" height="21" viewBox="0 0 20 21" fill="none" xmlns="http://www.w3.org/2000/svg">
<path d="M10 0.653809C4.579 0.653809 0 5.14475 0 10.4615C0 13.5892 1.592 16.4226 4 18.2331V18.3077H4.102C5.77 19.5287 7.813 20.2692 10 20.2692C12.187 20.2692 14.23 19.5287 15.898 18.3077H16V18.2331C18.408 16.4226 20 13.5902 20 10.4615C20 5.14475 15.421 0.653809 10 0.653809ZM6.074 17.2553C6.371 15.9362 7.568 14.9466 9 14.9466H11C12.432 14.9466 13.629 15.9371 13.926 17.2553C12.758 17.9193 11.416 18.3077 10 18.3077C8.584 18.3077 7.242 17.9193 6.074 17.2553ZM15.61 15.994C14.853 14.2286 13.072 12.985 11 12.985H9C6.928 12.985 5.146 14.2296 4.39 15.994C2.923 14.5631 2 12.5957 2 10.4615C2 6.20791 5.663 2.61535 10 2.61535C14.337 2.61535 18 6.20791 18 10.4615C18 12.5957 17.077 14.5631 15.61 15.994Z" fill="white"/>
<path d="M10 4.5769C7.72 4.5769 6 6.26383 6 8.49998C6 10.7361 7.72 12.4231 10 12.4231C12.28 12.4231 14 10.7361 14 8.49998C14 6.26383 12.28 4.5769 10 4.5769ZM10 10.4615C8.822 10.4615 8 9.65533 8 8.49998C8 7.34464 8.822 6.53844 10 6.53844C11.178 6.53844 12 7.34464 12 8.49998C12 9.65533 11.178 10.4615 10 10.4615Z" fill="white"/>
</svg>
